<mxfile host="app.diagrams.net" agent="Mozilla/5.0 (Linux; U; Android 13; zh-cn; 2312DRA50C Build/TKQ1.221114.001) AppleWebKit/537.36 (KHTML, like Gecko) Chrome/122.0.6261.119 Mobile Safari/537.36 XiaoMi/MiuiBrowser/19.5.80520" version="27.1.4">
  <diagram name="第 1 页" id="hBpjFzLowJhFBVcJmZGM">
    <mxGraphModel dx="371" dy="361" grid="1" gridSize="10" guides="1" tooltips="1" connect="1" arrows="1" fold="1" page="1" pageScale="1" pageWidth="827" pageHeight="1169" math="0" shadow="0">
      <root>
        <mxCell id="0" />
        <mxCell id="1" parent="0" />
        <mxCell id="vJkgZkLniLxtyMD61zLZ-1" value="" style="rounded=0;whiteSpace=wrap;html=1;" parent="1" vertex="1">
          <mxGeometry x="280" y="150" width="120" height="60" as="geometry" />
        </mxCell>
      </root>
    </mxGraphModel>
  </diagram>
</mxfile>
